<svg xmlns="http://www.w3.org/2000/svg"
    xmlns:xlink="http://www.w3.org/1999/xlink" id="Ebene_1" data-name="Ebene 1" viewBox="339.5 -0.02 142.06 250.76">
    <defs>
        <style>.cls-1,.cls-3,.cls-4,.cls-5{fill:none;}.cls-2{clip-path:url(#clip-path);}.cls-3,.cls-4,.cls-5{stroke:#fff;stroke-miterlimit:10;}.cls-3{stroke-width:6px;}.cls-4{stroke-width:3px;}.cls-5{stroke-width:2px;}</style>
        <clipPath id="clip-path" transform="translate(0 -171.07)">
            <rect class="cls-1" width="841.89" height="595.28"/>
        </clipPath>
    </defs>
    <title>Mimir</title>
    <g class="cls-2">
        <path class="cls-3" d="M351.61,272.38c3.7,4.21,5.67,4.55,6.77,4.19,2.2-.73,1.74-4.54,4.83-14.18.47-1.44,1.38-3.86,3.22-8.69,2-5.26,2.63-6.65,3.87-8.38a30.6,30.6,0,0,1,4.83-5.15,43.86,43.86,0,0,1,4.19-3.23c4.12-2.86,5.09-2.78,6.44-4.18s2.66-3.7,2.58-8.38l.32-4.83a27.31,27.31,0,0,0,0-7.73,33.39,33.39,0,0,0-3.86-11,74.45,74.45,0,0,0-4.84-7.73c-1.81-2.69-2.7-3.81-4.18-4.83-1.87-1.28-4.92-2.55-5.8-1.61s.93,2.89,2.57,7.41c1.23,3.36,3,8.17,1.61,13.21a19.74,19.74,0,0,1-2.89,5.8,28.14,28.14,0,0,1-4.84,5.47c-1.12,1-1.85,1.46-6.76,4.51-6.47,4-6.52,4-7.09,4.51a25.64,25.64,0,0,0-5.8,8.06,38.88,38.88,0,0,0-2.9,7.73,33.07,33.07,0,0,0-1.29,11.92,23.52,23.52,0,0,0,2.9,10.31,21.88,21.88,0,0,0,6.12,6.76" transform="translate(0 -171.07)"/>
        <path class="cls-4" d="M391.88,295.57c.2-.69,1.59-.4,8.7-1,3.93-.31,6-.59,9,0,1.12.21,4.46.86,4.51,1.93s-3.07,2-5.15,2.58c-3.58,1.05-6,1.77-9,1.29C395.61,299.72,391.53,296.83,391.88,295.57Z" transform="translate(0 -171.07)"/>
        <path class="cls-5" d="M429.9,291.39a4.57,4.57,0,0,1,0,3.54l-20.3-.32h-9l-8.7,1-10-2.58-.65-2.58c2.77.06,5.08,0,6.77,0a100.77,100.77,0,0,0,13.85-1c3.54-.52,3.35-.73,5.8-1s4.07-.18,10.31.32C427.36,289.56,429.12,289.93,429.9,291.39Z" transform="translate(0 -171.07)"/>
        <path class="cls-5" d="M444,308.06l6.45-7.73,4.51-5.48a7.31,7.31,0,0,1,1-1.87,8,8,0,0,1,2.87-2.32c3.16-1.4,6.44.46,6.77.65l4.18,5.48,3.55,6.44.32,3.54L473,311.6l-1.29,5.48-3.55,8.7-3.86,3.54-4.83,4.51-4.51,2.9-3.55,5.48-8.05-11.6,3.22-5.15Z" transform="translate(0 -171.07)"/>
        <path class="cls-5" d="M469.84,314.83v-7.09l-2-5.48L466.19,299a4.48,4.48,0,0,0-1.65-3.54,4.93,4.93,0,0,0-4.31-.65,5.07,5.07,0,0,0-2.65,1.94l-9.93,11.92,4.3,3.54h5l4.3-1" transform="translate(0 -171.07)"/>
        <polyline class="cls-5" points="462.72 150.52 457.56 146.34 454.34 146.34 449.19 144.4 450.8 148.27 451.12 152.46 448.22 158.9 452.73 158.58 459.5 158.26"/>
        <polygon class="cls-4" points="378.11 178.23 381.65 176.45 384.87 176.15 392.92 179.72 378.11 178.23"/>
        <polygon class="cls-4" points="371.59 123.86 367.08 121.29 362.57 120.97 362.89 125.47 365.79 127.08 371.27 127.08 371.59 123.86"/>
        <line class="cls-5" y1="424.21" y2="424.21"/>
        <path class="cls-3" d="M388.3,229.46a25.29,25.29,0,0,1,7.09-3.87,21.15,21.15,0,0,1,9.66-1.29,19.94,19.94,0,0,1,3.22.65" transform="translate(0 -171.07)"/>
        <path class="cls-3" d="M407,226.56a39,39,0,0,0,2.89,9.66c2.47,5.51,4.4,6.36,4.87,10.07.65,5-2.58,6-2.29,11.19.35,6.32,5.39,10.72,6.77,11.92a22.08,22.08,0,0,0,12.24,5.16A25.77,25.77,0,0,0,443.71,273,25.24,25.24,0,0,0,456,264.57a23.86,23.86,0,0,0,4.51-10.63c.73-4.17.18-7.28-.64-11.92-.71-4-1.24-6.83-3.22-10a16.13,16.13,0,0,0-5.16-5.47c-3.68-2.29-5.33-.84-9.34-2.9a18.07,18.07,0,0,1-6.77-6.44c-2.2-3.31-2.83-6.29-3.54-9.67a38.9,38.9,0,0,1-.64-11.92,48.73,48.73,0,0,1,2.25-10c2.27-7.43,4.32-10.26,3.22-11.27-1.38-1.27-6.12,1.83-6.76,2.25-1.51,1-2.88,2.18-6.12,6.13a74.11,74.11,0,0,0-6.77,9,101.11,101.11,0,0,0-4.83,9.66c-4.52,9.66-5.18,12.17-5.48,14.82a30.08,30.08,0,0,0,0,6.12c1.37,16.33,12.18,28.44,15.14,31.57a59.8,59.8,0,0,0,5.16,4.83" transform="translate(0 -171.07)"/>
        <polyline class="cls-5" points="376.8 123.68 375.27 128.96 372.82 133.06 372.52 138.63 372.52 145.37 371.29 150.65 371.29 156.22 376.49 155.92 380.47 153.28 383.52 154.16 385.97 154.75 389.33 152.11"/>
        <polyline class="cls-5" points="355.8 111.47 373.06 115.53 373.48 119.6 372.27 123.07 368.9 122.73"/>
        <path class="cls-3" d="M356.77,274.31c-.85,2.21-2.27,6.51-2,10.56a5.53,5.53,0,0,0,.64,2.57c1.24,2.14,3.4,1.74,4.55,3.63.49.8.44,2.05.32,4.51a32.08,32.08,0,0,1-.68,5.72c-.88,4.08-1.76,4.35-2.26,7.73-.37,2.55-.55,3.82,0,5.15,1.15,2.74,3.77,2.77,5.16,6.12a9.17,9.17,0,0,1,.64,2.9c.23,2.7-.7,3.63-1.61,7.41-1,4.35-.31,5.17-1.61,6.77-1.47,1.81-3.71,2.34-3.54,2.9s1.71-.17,2.9.64c1.89,1.3,2.18,5.86.32,8.7-.63,1-1.56,1.82-1.29,2.25s2-.34,2.58.33-.05,1.79-.65,3.54a30.79,30.79,0,0,0-1.28,5.15c-.37,2.48.45,3.09,1.28,7.73.67,3.73,1,5.59.65,7.09-1.16,4.84-6.55,7.4-6.12,8.06s3.36-1.5,4.19-.65-1.12,3-2.9,8.06c-.4,1.12-.81,2.68-1.61,5.79-1.6,6.16-1.56,7.28-1,7.74,1,.77,2.6-1.09,4.19-.33,1.77.86,2.49,4.52,1.29,7.09-1.32,2.8-4.27,2.91-4.19,4.19.11,1.7,5.5,3.89,10.63,2.9,4.4-.85,5-3.35,9-3.22,2.61.08,3.84,1.16,6.12.32,2-.75,3-2.34,3.87-1.93s.25,2.89,1,3.22c1.38.63,4.38-8.4,11.28-11.6,4.4-2,5.12.73,13.53-.32,1.64-.21,13.58-1.81,19.65-8.06a25.74,25.74,0,0,1,4.51-3.86,26.89,26.89,0,0,1,5.8-2.9c4.18-1.66,7-4.65,12.56-10.63,1.8-1.93,4.1-4.94,8.7-11,1.33-1.74,3.25-4.81,7.09-10.95,1.16-1.86,2.47-4,2.25-6.76a13.23,13.23,0,0,0-1.29-4.19,45.44,45.44,0,0,0-2.9-5.48c-1.79-3.65,1.64-7.05,7.09-20.29,1.86-4.53,2.79-7.37,3.22-11a34.74,34.74,0,0,0,0-7.65c-.51-6.24.38-6.94,1.25-22,1-17,.15-21.26-.64-24.16a39.33,39.33,0,0,0-4.19-10A31.64,31.64,0,0,0,464,235.9a29.48,29.48,0,0,0-6.13-3.22" transform="translate(0 -171.07)"/>
        <path class="cls-4" d="M476.25,294.21a26.16,26.16,0,0,0-8.38-6.44c-2.42-1.17-4.59-2.22-7.41-1.94-3.13.31-5.24,2.09-7.73,4.19-3.18,2.68-2.48,3.25-7.41,8.38-2.23,2.32-3.35,3.22-4.83,5.47a19,19,0,0,0-2.58,5.16c-1.07,3.55,0,4.48-.64,9.66-.35,2.66-.63,2.34-1.29,6.44-.75,4.66-.39,5-1,6.45-1.51,3.68-5.69,5.24-8.05,6.12-6.36,2.36-12.16,1-15.14.32a42.18,42.18,0,0,1-11.92-5.15,61.3,61.3,0,0,1-6.77-4.51,17.5,17.5,0,0,0-4.83.32,17.74,17.74,0,0,0-5.15,1.93l-4.19-1a22.91,22.91,0,0,1-4.51,2.9,23.19,23.19,0,0,1-5.8,1.94l-5.15-5.16" transform="translate(0 -171.07)"/>
    </g>
</svg>